<svg width="493" height="495" viewBox="0 0 493 495" fill="none" xmlns="http://www.w3.org/2000/svg">
<path d="M246.454 3.28613C380.744 3.28613 489.622 112.423 489.622 247.067C489.622 381.712 380.744 490.85 246.454 490.85C112.164 490.85 3.28613 381.712 3.28613 247.067C3.28626 112.423 112.164 3.28621 246.454 3.28613Z" stroke="#C9A84C" stroke-width="6.57211"/>
<path d="M246.479 29.7061C366.195 29.7062 463.252 126.998 463.252 247.024C463.252 367.051 366.195 464.342 246.479 464.342C126.764 464.342 29.7062 367.051 29.7061 247.024C29.7061 126.998 126.764 29.7061 246.479 29.7061Z" stroke="#C9A84C" stroke-opacity="0.38" stroke-width="4.38141"/>
<path d="M246.495 89.8379C333.109 89.8379 403.332 160.228 403.332 247.07C403.332 333.912 333.109 404.303 246.495 404.303C159.882 404.303 89.6582 333.912 89.6582 247.07C89.6584 160.228 159.882 89.838 246.495 89.8379Z" stroke="#C9A84C" stroke-opacity="0.52" stroke-width="4.23883"/>
<path d="M246.512 150.634C299.603 150.634 342.656 193.782 342.656 247.024C342.656 300.267 299.603 343.415 246.512 343.415C193.42 343.415 150.368 300.267 150.368 247.024C150.368 193.782 193.42 150.634 246.512 150.634Z" stroke="#C9A84C" stroke-width="6.13397"/>
<path d="M252.692 65.9249C249.27 62.5028 243.722 62.5028 240.3 65.9249L184.534 121.691C181.112 125.113 181.112 130.662 184.534 134.084C187.956 137.506 193.504 137.506 196.926 134.084L246.496 84.5137L296.066 134.084C299.488 137.506 305.036 137.506 308.459 134.084C311.881 130.662 311.881 125.113 308.459 121.691L252.692 65.9249ZM246.496 402.129H255.259L255.259 72.1212H246.496H237.733L237.733 402.129H246.496Z" fill="white"/>
<path d="M246.497 399.401C258.455 399.401 268.152 409.12 268.152 421.111C268.152 433.103 258.455 442.821 246.497 442.821C234.539 442.821 224.843 433.103 224.843 421.111C224.843 409.12 234.54 399.402 246.497 399.401Z" fill="#C9A84C" stroke="#C9A84C" stroke-width="1.38155"/>
</svg>
